# xmcd
#
# Track frame offsets:
#	150
#	20575
#	39069
#	56319
#	74111
#	93033
#	115863
#	132604
#	153875
#	166779
#	181806
#
# Disc length: 2765 seconds
#
# Revision: 0
# Processed by: cddbd v1.5.2PL0 Copyright (c) Steve Scherf et al.
# Submitted via: FairStars CD Ripper 1.90
#
DISCID=830acb0b
DTITLE=Mark McKinney - World In Between
DYEAR=2017
DGENRE=Country
TTITLE0=90 Miles
TTITLE1=Bridge
TTITLE2=Bacon and Eggs
TTITLE3=Rainy Day Money
TTITLE4=Sunshine
TTITLE5=Alright
TTITLE6=Yours
TTITLE7=Stories
TTITLE8=Close
TTITLE9=Monday
TTITLE10=Revolution (feat. Jagger Mckinney)
EXTD=
EXTT0=
EXTT1=
EXTT2=
EXTT3=
EXTT4=
EXTT5=
EXTT6=
EXTT7=
EXTT8=
EXTT9=
EXTT10=
PLAYORDER=
